<?xml version="1.0" standalone="no"?>
<!DOCTYPE svg PUBLIC "-//W3C//DTD SVG 20010904//EN"
 "http://www.w3.org/TR/2001/REC-SVG-20010904/DTD/svg10.dtd">
<svg version="1.0" xmlns="http://www.w3.org/2000/svg"
 width="512.000000pt" height="512.000000pt" viewBox="0 0 512.000000 512.000000"
 preserveAspectRatio="xMidYMid meet">
<metadata>
Created by potrace 1.16, written by Peter Selinger 2001-2019
</metadata>
<g transform="translate(0.000000,512.000000) scale(0.100000,-0.100000)"
fill="#000000" stroke="none">
<path d="M1110 4820 c-8 -38 -11 -95 -7 -153 l5 -92 -81 3 c-61 3 -89 8 -109
23 -15 10 -40 19 -55 19 -38 0 -153 -41 -175 -62 -10 -10 -24 -18 -32 -18 -7
0 -30 -27 -50 -60 -21 -33 -41 -60 -46 -60 -5 0 -12 -9 -15 -20 -3 -11 -12
-20 -20 -20 -8 0 -16 -8 -19 -17 -12 -37 -68 -63 -133 -63 -47 0 -70 -5 -97
-22 l-35 -23 -1 -1617 c0 -1573 1 -1618 19 -1618 10 0 29 -8 42 -19 13 -10 38
-22 56 -25 17 -4 37 -14 44 -22 6 -8 22 -14 35 -14 13 0 33 -9 44 -20 11 -11
31 -20 44 -20 13 0 35 -9 49 -20 14 -11 34 -20 45 -20 10 0 31 -9 45 -20 14
-11 36 -20 50 -20 13 0 32 -9 42 -20 10 -11 28 -20 40 -20 12 0 34 -9 48 -20
14 -11 34 -20 45 -20 10 0 31 -9 45 -20 14 -11 34 -20 45 -20 10 0 31 -9 45
-20 14 -11 36 -20 50 -20 13 0 32 -9 42 -20 10 -11 28 -20 40 -20 12 0 34 -9
48 -20 14 -11 34 -20 45 -20 10 0 31 -9 45 -20 14 -11 32 -20 41 -20 21 0 66
-21 66 -32 0 -4 14 -8 30 -8 17 0 38 -8 49 -19 10 -10 34 -21 54 -25 19 -4 40
-13 47 -21 7 -8 23 -15 35 -15 12 0 34 -9 48 -20 14 -11 36 -20 50 -20 13 0
32 -9 42 -20 10 -11 29 -20 42 -20 12 0 31 -8 41 -18 9 -9 35 -22 57 -27 26
-7 43 -18 50 -32 l10 -23 597 0 596 0 30 30 c17 17 40 30 52 30 12 0 33 9 47
20 14 11 36 20 48 20 12 0 30 9 40 20 10 11 31 20 47 20 16 0 36 7 45 15 8 9
28 19 44 22 16 3 34 11 40 19 6 7 27 16 46 20 20 4 44 15 54 25 11 11 32 19
49 19 17 0 30 4 30 8 0 11 45 32 66 32 9 0 27 9 41 20 14 11 35 20 45 20 11 0
31 9 45 20 14 11 36 20 48 20 12 0 30 9 40 20 10 11 29 20 42 20 14 0 36 9 50
20 14 11 35 20 45 20 11 0 31 9 45 20 14 11 35 20 45 20 11 0 31 9 45 20 14
11 36 20 48 20 12 0 30 9 40 20 10 11 29 20 42 20 14 0 36 9 50 20 14 11 36
20 48 20 12 0 28 7 35 15 7 8 28 17 47 21 20 4 44 15 54 25 11 11 31 19 45 19
14 0 32 7 40 15 9 8 27 18 42 22 15 3 38 14 51 25 13 10 32 18 42 18 18 0 19
45 19 1618 l-1 1617 -35 23 c-27 17 -50 22 -97 22 -65 0 -121 26 -133 63 -3 9
-12 17 -20 17 -8 0 -14 4 -14 8 0 5 -16 26 -35 47 -19 22 -39 52 -46 67 -13
33 -61 63 -149 95 -79 28 -113 29 -148 4 -20 -15 -48 -20 -109 -23 l-81 -3 5
92 c4 58 1 115 -7 153 l-13 60 -233 0 c-226 0 -233 -1 -239 -21 -7 -21 -42
-39 -77 -39 -11 0 -31 -9 -45 -20 -14 -11 -36 -20 -48 -20 -12 0 -30 -9 -40
-20 -10 -11 -30 -20 -44 -20 -15 0 -31 -8 -39 -20 -7 -11 -23 -20 -36 -20 -12
0 -31 -9 -41 -20 -10 -11 -23 -20 -30 -20 -7 0 -20 -9 -30 -20 -10 -11 -25
-20 -34 -20 -9 0 -22 -9 -29 -20 -7 -11 -18 -20 -25 -20 -7 0 -18 -9 -25 -20
-7 -11 -19 -20 -27 -20 -8 0 -18 -6 -22 -13 -4 -7 -37 -37 -73 -66 -36 -30
-69 -61 -74 -70 -5 -9 -26 -37 -48 -62 -21 -26 -38 -52 -38 -58 0 -6 -6 -11
-12 -11 -16 -1 -68 -81 -68 -104 0 -9 -7 -16 -15 -16 -8 0 -17 -12 -21 -27
-10 -48 -14 -55 -27 -51 -6 3 -13 19 -15 37 -2 23 -10 35 -23 38 -10 3 -19 12
-19 20 0 22 -53 102 -67 103 -7 0 -13 6 -13 13 0 6 -18 32 -40 56 -22 25 -40
48 -40 52 0 13 -111 118 -131 124 -11 4 -19 11 -19 16 0 5 -11 14 -25 19 -14
5 -28 17 -31 25 -4 8 -12 15 -20 15 -8 0 -19 9 -26 20 -7 11 -20 20 -29 20 -9
0 -22 7 -29 16 -8 8 -28 21 -47 29 -18 8 -33 19 -33 24 0 6 -11 11 -24 11 -14
0 -31 8 -38 18 -7 10 -25 22 -40 25 -15 4 -33 14 -42 22 -8 8 -26 15 -40 15
-14 0 -35 9 -46 20 -11 11 -33 20 -51 20 -21 0 -40 10 -61 30 l-30 30 -227 0
-228 0 -13 -60z m330 -145 c67 -17 145 -42 185 -60 17 -8 57 -26 90 -40 33
-14 67 -30 75 -35 8 -6 26 -16 40 -22 142 -70 372 -278 468 -423 46 -70 64
-115 46 -115 -3 0 -29 15 -57 34 -129 84 -381 217 -552 291 -56 24 -195 75
-287 106 -51 17 -99 36 -105 42 -8 8 -13 50 -14 121 -1 112 6 133 41 120 8 -3
40 -12 70 -19z m2340 5 c11 -7 14 -30 12 -112 -2 -63 -8 -107 -15 -115 -7 -6
-54 -25 -105 -42 -296 -98 -548 -218 -817 -386 -66 -42 -95 -54 -95 -38 0 11
51 95 93 153 63 87 224 239 322 305 144 97 341 187 500 230 61 16 86 18 105 5z
m-2799 -300 c41 -11 83 -20 94 -20 11 0 49 -9 85 -20 36 -10 106 -31 155 -45
98 -29 108 -32 270 -95 251 -97 447 -198 650 -332 83 -55 201 -153 227 -188
22 -30 29 -163 9 -183 -7 -7 -42 -13 -79 -14 -37 -1 -96 -2 -132 -4 -53 -1
-76 3 -125 26 -55 25 -85 38 -185 82 -19 9 -55 25 -80 36 -25 11 -63 28 -85
37 -22 10 -56 24 -75 33 -19 9 -89 39 -155 68 -66 28 -153 66 -193 85 -40 19
-77 34 -83 34 -5 0 -27 9 -47 20 -20 11 -64 32 -97 46 -33 14 -80 35 -105 46
-25 11 -61 27 -80 35 -19 9 -53 24 -75 33 -22 10 -84 37 -137 61 -76 32 -98
46 -98 61 0 23 121 173 154 190 22 12 70 25 97 27 8 1 49 -8 90 -19z m3340 -9
c31 -19 149 -160 149 -178 0 -26 -48 -54 -227 -134 -88 -39 -139 -61 -168 -74
-33 -13 -107 -46 -170 -75 -22 -10 -62 -28 -90 -39 -53 -23 -109 -48 -178 -79
-23 -11 -71 -32 -107 -47 -36 -15 -84 -36 -107 -46 -60 -27 -125 -56 -180 -80
-27 -11 -61 -27 -78 -34 -16 -8 -52 -23 -80 -35 -27 -12 -68 -30 -90 -40 -64
-30 -106 -38 -190 -33 -134 7 -145 10 -161 48 -17 41 -4 126 24 159 86 103
337 274 562 383 137 66 390 173 412 173 5 0 24 6 41 14 29 13 109 37 277 85
105 30 273 60 305 54 17 -3 42 -12 56 -22z"/>
</g>
</svg>
