<?xml version="1.0" standalone="no"?>
<!DOCTYPE svg PUBLIC "-//W3C//DTD SVG 20010904//EN"
 "http://www.w3.org/TR/2001/REC-SVG-20010904/DTD/svg10.dtd">
<svg version="1.0" xmlns="http://www.w3.org/2000/svg"
 width="512.000000pt" height="512.000000pt" viewBox="0 0 512.000000 512.000000"
 preserveAspectRatio="xMidYMid meet">

<g transform="translate(0.000000,512.000000) scale(0.100000,-0.100000)"
fill="#000000" stroke="none">
<path d="M1162 4841 c-7 -21 -12 -97 -12 -169 0 -160 0 -161 -111 -130 -48 13
-109 21 -174 21 -93 2 -103 0 -147 -26 -26 -16 -71 -58 -100 -95 -117 -149
-149 -172 -242 -172 -38 0 -106 -33 -106 -51 0 -5 -7 -9 -15 -9 -13 0 -15
-180 -15 -1561 l0 -1561 23 -20 c19 -17 86 -51 232 -118 22 -10 114 -50 205
-90 91 -40 194 -85 229 -102 35 -16 128 -56 205 -89 78 -33 166 -72 196 -86
30 -14 73 -33 95 -43 22 -9 56 -24 75 -33 19 -9 89 -39 155 -68 66 -28 147
-64 180 -79 109 -51 203 -90 214 -90 7 0 14 -7 17 -15 5 -13 70 -15 496 -15
407 0 493 2 502 14 6 8 126 64 266 126 140 61 271 118 290 127 19 9 53 24 75
34 22 9 75 33 117 53 42 20 80 36 84 36 5 0 507 220 719 315 109 49 223 107
243 124 l22 19 0 1561 c0 1381 -2 1561 -15 1561 -8 0 -15 4 -15 9 0 5 -20 21
-44 35 -33 19 -58 26 -100 26 -67 0 -86 14 -186 141 -45 56 -89 100 -119 117
-43 25 -53 27 -151 25 -72 -1 -127 -8 -174 -22 -104 -31 -106 -29 -106 131 0
72 -5 148 -12 169 l-11 39 -128 0 c-101 0 -128 -3 -132 -14 -3 -8 -23 -18 -44
-21 -37 -6 -75 -19 -203 -69 -203 -78 -352 -166 -505 -297 -132 -114 -243
-250 -317 -389 -27 -52 -39 -65 -58 -65 -18 0 -30 13 -58 65 -118 221 -305
411 -539 548 -190 110 -322 166 -500 212 -24 6 -43 15 -43 20 0 6 -51 10 -123
10 l-124 0 -11 -39z m278 -166 c67 -17 145 -42 185 -60 17 -8 57 -26 90 -40
33 -14 67 -30 75 -35 8 -6 26 -16 40 -22 142 -70 372 -278 468 -423 46 -70 64
-115 46 -115 -3 0 -29 15 -57 34 -129 84 -381 217 -552 291 -56 24 -195 75
-287 106 -51 17 -99 36 -105 42 -8 8 -13 50 -14 121 -1 112 6 133 41 120 8 -3
40 -12 70 -19z m2340 5 c11 -7 14 -30 12 -112 -2 -63 -8 -107 -15 -115 -7 -6
-54 -25 -105 -42 -296 -98 -548 -218 -817 -386 -66 -42 -95 -54 -95 -38 0 11
51 95 93 153 63 87 224 239 322 305 144 97 341 187 500 230 61 16 86 18 105 5z
m-2799 -300 c41 -11 83 -20 94 -20 11 0 49 -9 85 -20 36 -10 106 -31 155 -45
98 -29 108 -32 270 -95 251 -97 447 -198 650 -332 83 -55 201 -153 227 -188
22 -30 29 -163 9 -183 -7 -7 -42 -13 -79 -14 -37 -1 -96 -2 -132 -4 -53 -1
-76 3 -125 26 -55 25 -85 38 -185 82 -19 9 -55 25 -80 36 -25 11 -63 28 -85
37 -22 10 -56 24 -75 33 -19 9 -89 39 -155 68 -66 28 -153 66 -193 85 -40 19
-77 34 -83 34 -5 0 -27 9 -47 20 -20 11 -64 32 -97 46 -33 14 -80 35 -105 46
-25 11 -61 27 -80 35 -19 9 -53 24 -75 33 -22 10 -84 37 -137 61 -76 32 -98
46 -98 61 0 23 121 173 154 190 22 12 70 25 97 27 8 1 49 -8 90 -19z m3340 -9
c31 -19 149 -160 149 -178 0 -26 -48 -54 -227 -134 -88 -39 -139 -61 -168 -74
-33 -13 -107 -46 -170 -75 -22 -10 -62 -28 -90 -39 -53 -23 -109 -48 -178 -79
-23 -11 -71 -32 -107 -47 -36 -15 -84 -36 -107 -46 -60 -27 -125 -56 -180 -80
-27 -11 -61 -27 -78 -34 -16 -8 -52 -23 -80 -35 -27 -12 -68 -30 -90 -40 -64
-30 -106 -38 -190 -33 -134 7 -145 10 -161 48 -17 41 -4 126 24 159 86 103
337 274 562 383 137 66 390 173 412 173 5 0 24 6 41 14 29 13 109 37 277 85
105 30 273 60 305 54 17 -3 42 -12 56 -22z m-3496 -1070 c106 -51 251 -120
350 -166 44 -20 117 -55 163 -76 132 -62 251 -119 332 -156 199 -92 182 -58
182 -376 1 -140 -2 -260 -6 -266 -10 -16 -32 -14 -74 9 -20 10 -81 40 -134 65
-54 25 -141 65 -193 90 -247 117 -284 135 -345 163 -36 17 -118 55 -183 86
-65 31 -122 56 -127 56 -4 0 -22 12 -39 26 l-31 26 0 279 c0 212 3 279 12 279
7 0 48 -17 93 -39z m3565 -244 c0 -271 0 -274 -22 -295 -13 -11 -36 -24 -53
-28 -16 -3 -37 -12 -45 -19 -8 -7 -26 -16 -40 -20 -14 -4 -32 -13 -40 -20 -8
-7 -26 -16 -40 -20 -30 -9 -255 -115 -320 -151 -14 -8 -32 -14 -41 -14 -9 0
-22 -6 -28 -14 -7 -8 -25 -18 -41 -21 -16 -3 -34 -13 -40 -20 -7 -8 -27 -17
-46 -21 -18 -3 -38 -12 -44 -19 -6 -8 -24 -17 -40 -20 -16 -3 -34 -13 -41 -21
-6 -8 -16 -14 -21 -14 -16 0 -131 -52 -149 -67 -8 -7 -26 -13 -40 -13 l-24 0
2 257 c1 141 4 267 7 278 4 15 28 33 73 54 38 18 79 39 93 47 14 7 32 14 41
14 9 0 22 6 28 14 7 8 25 18 41 21 16 3 34 12 40 20 6 8 26 17 43 20 18 4 39
13 47 20 8 7 26 16 40 20 14 4 32 13 40 20 8 7 26 16 40 20 14 4 61 25 105 46
44 22 85 39 91 39 6 0 17 6 23 14 7 8 25 18 41 21 16 3 34 13 40 20 7 8 27 17
46 21 18 3 38 12 44 19 6 8 24 17 40 20 16 3 34 13 41 21 6 8 19 14 28 14 9 1
27 7 41 15 14 8 28 14 33 15 4 0 7 -123 7 -273z m-1615 -207 c21 -18 21 -116
-1 -124 -9 -3 -107 -6 -220 -6 l-204 0 -16 25 c-20 31 -13 93 13 113 24 19
404 12 428 -8z m-11 -1850 c23 -9 26 -15 26 -62 0 -79 -5 -81 -243 -80 -125 0
-203 4 -209 10 -6 6 -13 33 -16 60 -7 81 -4 82 223 82 107 0 205 -4 219 -10z"/>
</g>
</svg>
