<?xml version="1.0" standalone="no"?>
<!DOCTYPE svg PUBLIC "-//W3C//DTD SVG 20010904//EN"
 "http://www.w3.org/TR/2001/REC-SVG-20010904/DTD/svg10.dtd">
<svg version="1.0" xmlns="http://www.w3.org/2000/svg"
 width="512.000000pt" height="512.000000pt" viewBox="0 0 512.000000 512.000000"
 preserveAspectRatio="xMidYMid meet">
<metadata>
Created by potrace 1.16, written by Peter Selinger 2001-2019
</metadata>
<g transform="translate(0.000000,512.000000) scale(0.100000,-0.100000)"
fill="#000000" stroke="none">
<path d="M1110 4820 c-8 -38 -11 -95 -7 -153 l5 -92 -81 3 c-61 3 -89 8 -109
23 -15 10 -40 19 -55 19 -38 0 -153 -41 -175 -62 -10 -10 -24 -18 -32 -18 -7
0 -30 -27 -50 -60 -21 -33 -41 -60 -46 -60 -5 0 -12 -9 -15 -20 -3 -11 -12
-20 -20 -20 -8 0 -16 -8 -19 -17 -12 -37 -68 -63 -133 -63 -47 0 -70 -5 -97
-22 l-35 -23 -1 -1617 c0 -1573 1 -1618 19 -1618 10 0 29 -8 42 -19 13 -10 38
-22 56 -25 17 -4 37 -14 44 -22 6 -8 22 -14 35 -14 13 0 33 -9 44 -20 11 -11
31 -20 44 -20 13 0 35 -9 49 -20 14 -11 34 -20 45 -20 10 0 31 -9 45 -20 14
-11 36 -20 50 -20 13 0 32 -9 42 -20 10 -11 28 -20 40 -20 12 0 34 -9 48 -20
14 -11 34 -20 45 -20 10 0 31 -9 45 -20 14 -11 34 -20 45 -20 10 0 31 -9 45
-20 14 -11 36 -20 50 -20 13 0 32 -9 42 -20 10 -11 28 -20 40 -20 12 0 34 -9
48 -20 14 -11 34 -20 45 -20 10 0 31 -9 45 -20 14 -11 32 -20 41 -20 21 0 66
-21 66 -32 0 -4 14 -8 30 -8 17 0 38 -8 49 -19 10 -10 34 -21 54 -25 19 -4 40
-13 47 -21 7 -8 23 -15 35 -15 12 0 34 -9 48 -20 14 -11 36 -20 50 -20 13 0
32 -9 42 -20 10 -11 29 -20 42 -20 12 0 31 -8 41 -18 9 -9 35 -22 57 -27 26
-7 43 -18 50 -32 l10 -23 597 0 596 0 30 30 c17 17 40 30 52 30 12 0 33 9 47
20 14 11 36 20 48 20 12 0 30 9 40 20 10 11 31 20 47 20 16 0 36 7 45 15 8 9
28 19 44 22 16 3 34 11 40 19 6 7 27 16 46 20 20 4 44 15 54 25 11 11 32 19
49 19 17 0 30 4 30 8 0 11 45 32 66 32 9 0 27 9 41 20 14 11 35 20 45 20 11 0
31 9 45 20 14 11 36 20 48 20 12 0 30 9 40 20 10 11 29 20 42 20 14 0 36 9 50
20 14 11 35 20 45 20 11 0 31 9 45 20 14 11 35 20 45 20 11 0 31 9 45 20 14
11 36 20 48 20 12 0 30 9 40 20 10 11 29 20 42 20 14 0 36 9 50 20 14 11 36
20 48 20 12 0 28 7 35 15 7 8 28 17 47 21 20 4 44 15 54 25 11 11 31 19 45 19
14 0 32 7 40 15 9 8 27 18 42 22 15 3 38 14 51 25 13 10 32 18 42 18 18 0 19
45 19 1618 l-1 1617 -35 23 c-27 17 -50 22 -97 22 -65 0 -121 26 -133 63 -3 9
-12 17 -20 17 -8 0 -14 4 -14 8 0 5 -16 26 -35 47 -19 22 -39 52 -46 67 -13
33 -61 63 -149 95 -79 28 -113 29 -148 4 -20 -15 -48 -20 -109 -23 l-81 -3 5
92 c4 58 1 115 -7 153 l-13 60 -233 0 c-226 0 -233 -1 -239 -21 -7 -21 -42
-39 -77 -39 -11 0 -31 -9 -45 -20 -14 -11 -36 -20 -48 -20 -12 0 -30 -9 -40
-20 -10 -11 -30 -20 -44 -20 -15 0 -31 -8 -39 -20 -7 -11 -23 -20 -36 -20 -12
0 -31 -9 -41 -20 -10 -11 -23 -20 -30 -20 -7 0 -20 -9 -30 -20 -10 -11 -25
-20 -34 -20 -9 0 -22 -9 -29 -20 -7 -11 -18 -20 -25 -20 -7 0 -18 -9 -25 -20
-7 -11 -19 -20 -27 -20 -8 0 -18 -6 -22 -13 -4 -7 -37 -37 -73 -66 -36 -30
-69 -61 -74 -70 -5 -9 -26 -37 -48 -62 -21 -26 -38 -52 -38 -58 0 -6 -6 -11
-12 -11 -16 -1 -68 -81 -68 -104 0 -9 -7 -16 -15 -16 -8 0 -17 -12 -21 -27
-10 -48 -14 -55 -27 -51 -6 3 -13 19 -15 37 -2 23 -10 35 -23 38 -10 3 -19 12
-19 20 0 22 -53 102 -67 103 -7 0 -13 6 -13 13 0 6 -18 32 -40 56 -22 25 -40
48 -40 52 0 13 -111 118 -131 124 -11 4 -19 11 -19 16 0 5 -11 14 -25 19 -14
5 -28 17 -31 25 -4 8 -12 15 -20 15 -8 0 -19 9 -26 20 -7 11 -20 20 -29 20 -9
0 -22 7 -29 16 -8 8 -28 21 -47 29 -18 8 -33 19 -33 24 0 6 -11 11 -24 11 -14
0 -31 8 -38 18 -7 10 -25 22 -40 25 -15 4 -33 14 -42 22 -8 8 -26 15 -40 15
-14 0 -35 9 -46 20 -11 11 -33 20 -51 20 -21 0 -40 10 -61 30 l-30 30 -227 0
-228 0 -13 -60z m330 -145 c67 -17 145 -42 185 -60 17 -8 57 -26 90 -40 33
-14 67 -30 75 -35 8 -6 26 -16 40 -22 142 -70 372 -278 468 -423 46 -70 64
-115 46 -115 -3 0 -29 15 -57 34 -129 84 -381 217 -552 291 -56 24 -195 75
-287 106 -51 17 -99 36 -105 42 -8 8 -13 50 -14 121 -1 112 6 133 41 120 8 -3
40 -12 70 -19z m2340 5 c11 -7 14 -30 12 -112 -2 -63 -8 -107 -15 -115 -7 -6
-54 -25 -105 -42 -296 -98 -548 -218 -817 -386 -66 -42 -95 -54 -95 -38 0 11
51 95 93 153 63 87 224 239 322 305 144 97 341 187 500 230 61 16 86 18 105 5z
m-2799 -300 c41 -11 83 -20 94 -20 11 0 49 -9 85 -20 36 -10 106 -31 155 -45
98 -29 108 -32 270 -95 251 -97 447 -198 650 -332 83 -55 201 -153 227 -188
22 -30 29 -163 9 -183 -7 -7 -42 -13 -79 -14 -37 -1 -96 -2 -132 -4 -53 -1
-76 3 -125 26 -55 25 -85 38 -185 82 -19 9 -55 25 -80 36 -25 11 -63 28 -85
37 -22 10 -56 24 -75 33 -19 9 -89 39 -155 68 -66 28 -153 66 -193 85 -40 19
-77 34 -83 34 -5 0 -27 9 -47 20 -20 11 -64 32 -97 46 -33 14 -80 35 -105 46
-25 11 -61 27 -80 35 -19 9 -53 24 -75 33 -22 10 -84 37 -137 61 -76 32 -98
46 -98 61 0 23 121 173 154 190 22 12 70 25 97 27 8 1 49 -8 90 -19z m3340 -9
c31 -19 149 -160 149 -178 0 -26 -48 -54 -227 -134 -88 -39 -139 -61 -168 -74
-33 -13 -107 -46 -170 -75 -22 -10 -62 -28 -90 -39 -53 -23 -109 -48 -178 -79
-23 -11 -71 -32 -107 -47 -36 -15 -84 -36 -107 -46 -60 -27 -125 -56 -180 -80
-27 -11 -61 -27 -78 -34 -16 -8 -52 -23 -80 -35 -27 -12 -68 -30 -90 -40 -64
-30 -106 -38 -190 -33 -134 7 -145 10 -161 48 -17 41 -4 126 24 159 86 103
337 274 562 383 137 66 390 173 412 173 5 0 24 6 41 14 29 13 109 37 277 85
105 30 273 60 305 54 17 -3 42 -12 56 -22z m397 -1716 c1 -786 0 -1440 -3
-1452 -6 -24 -61 -64 -105 -78 -14 -4 -62 -25 -108 -46 -46 -22 -88 -39 -93
-39 -6 0 -27 -9 -47 -20 -20 -10 -59 -29 -87 -41 -27 -12 -69 -30 -92 -40 -24
-10 -62 -27 -85 -38 -24 -10 -59 -25 -78 -34 -248 -110 -411 -181 -436 -188
-18 -5 -37 -16 -44 -24 -7 -8 -19 -15 -28 -15 -8 0 -36 -10 -61 -21 -59 -28
-147 -67 -191 -86 -61 -27 -119 -52 -162 -72 -104 -46 -132 -51 -142 -25 -3 9
-6 656 -6 1439 l0 1423 26 31 c14 17 31 31 36 31 6 0 32 9 57 21 25 12 64 29
86 39 22 9 61 27 88 39 26 11 66 29 90 40 75 33 111 49 169 75 31 14 60 26 65
26 4 0 21 7 37 15 16 9 82 38 145 66 64 27 128 57 143 65 14 7 33 14 41 14 8
0 26 9 40 20 14 11 31 20 37 20 7 0 34 9 59 21 50 23 107 49 174 78 145 64
198 87 257 114 30 13 66 28 79 32 14 4 38 16 55 26 17 11 42 18 56 17 l25 -3
3 -1430z m-4213 1401 c27 -13 100 -45 160 -71 109 -46 143 -61 220 -96 39 -17
98 -44 198 -88 26 -12 66 -30 90 -41 24 -11 46 -20 50 -20 3 0 45 -18 94 -41
48 -22 102 -46 118 -53 17 -7 50 -22 75 -33 111 -51 258 -113 267 -113 6 0 16
-7 23 -15 7 -8 20 -15 30 -15 20 0 137 -57 146 -71 3 -6 22 -9 41 -7 18 1 37
-2 41 -8 4 -5 14 -9 22 -9 8 1 21 -3 28 -8 6 -5 12 -6 12 -1 0 4 7 -1 16 -12
8 -10 12 -13 8 -5 -5 9 -3 12 5 7 6 -4 9 -11 6 -16 -3 -5 -1 -11 5 -15 7 -4
10 -486 10 -1461 l0 -1456 -32 3 c-18 2 -39 7 -45 12 -7 5 -13 6 -13 1 0 -5
-4 -3 -9 5 -5 8 -17 16 -26 17 -9 1 -24 12 -34 23 -10 12 -25 21 -34 21 -8 0
-28 6 -44 14 -15 7 -48 22 -73 33 -25 11 -65 29 -90 41 -25 11 -56 24 -70 27
-14 4 -29 11 -35 15 -5 4 -64 31 -130 60 -66 28 -140 61 -165 72 -55 25 -103
45 -155 68 -22 10 -65 29 -96 44 -31 14 -59 26 -63 26 -6 0 -120 51 -201 90
-22 10 -52 22 -67 26 -15 3 -32 12 -39 20 -6 8 -17 14 -24 14 -23 0 -300 130
-312 147 -10 13 -13 319 -13 1448 0 788 3 1435 7 1438 12 13 48 7 98 -17z
m2263 -742 c21 -14 22 -22 22 -139 0 -113 -2 -125 -19 -135 -12 -6 -98 -10
-211 -10 -113 0 -199 4 -211 10 -17 10 -19 22 -19 140 0 112 2 130 18 139 10
6 97 11 207 11 157 0 195 -3 213 -16z m15 -463 c11 -19 17 -50 17 -91 l0 -62
-217 7 c-260 8 -263 9 -263 90 0 32 5 57 13 62 10 7 132 14 367 21 63 2 66 1
83 -27z m-4 -317 c21 -26 21 -34 21 -671 l0 -645 -29 -29 -29 -29 -182 0 -182
0 -29 29 -29 29 0 652 c0 430 4 658 10 671 10 18 23 19 220 19 l209 0 20 -26z
m-15 -1534 c23 -9 26 -15 26 -62 0 -79 -5 -81 -243 -80 -125 0 -203 4 -209 10
-6 6 -13 33 -16 60 -7 81 -4 82 223 82 107 0 205 -4 219 -10z m-2 -300 c4 0
14 -7 22 -16 13 -12 16 -40 16 -138 0 -81 -4 -126 -12 -134 -17 -17 -439 -17
-456 0 -13 13 -17 245 -4 264 4 6 15 15 24 20 12 7 257 9 410 4z"/>
<path d="M4470 3568 c-38 -15 -96 -41 -190 -86 -47 -22 -96 -45 -110 -51 -14
-6 -32 -15 -40 -19 -56 -31 -101 -52 -113 -52 -8 0 -26 -9 -40 -20 -14 -11
-30 -20 -36 -20 -7 0 -62 -24 -124 -54 -126 -60 -245 -117 -309 -146 -24 -11
-50 -24 -58 -28 -15 -9 -59 -30 -120 -56 -19 -9 -42 -20 -50 -25 -8 -5 -40
-19 -70 -32 -124 -52 -119 -32 -120 -505 l-1 -397 33 -34 c17 -18 42 -33 54
-33 26 0 129 44 139 59 3 6 13 11 21 11 8 0 65 24 127 54 126 60 245 117 309
146 24 11 50 24 58 29 22 13 102 48 127 55 11 4 27 13 33 21 7 8 19 15 27 15
7 0 66 25 131 56 64 31 144 69 177 84 73 34 161 76 197 96 14 8 36 30 47 50
20 34 21 48 21 414 0 364 -1 380 -21 414 -16 28 -60 68 -71 65 -2 0 -14 -5
-28 -11z m-67 -509 c-2 -303 -3 -308 -57 -325 -11 -4 -70 -30 -131 -59 -60
-29 -144 -68 -185 -88 -95 -44 -289 -135 -520 -244 -52 -25 -118 -56 -146 -70
-28 -14 -62 -23 -75 -21 l-24 3 -3 264 c-2 226 0 267 13 288 15 22 49 40 310
163 50 23 133 63 185 87 52 25 124 59 160 75 98 45 213 100 330 157 58 27 114
50 125 51 20 0 20 -6 18 -281z"/>
<path d="M4420 2389 c-140 -67 -226 -107 -250 -118 -14 -6 -32 -15 -40 -19
-14 -9 -77 -38 -130 -61 -14 -6 -32 -15 -40 -19 -8 -5 -35 -18 -60 -29 -43
-20 -112 -52 -302 -142 -46 -21 -94 -44 -108 -50 -14 -6 -32 -15 -40 -19 -14
-9 -77 -38 -130 -61 -14 -6 -32 -15 -40 -20 -8 -5 -45 -23 -82 -40 -100 -47
-131 -98 -90 -147 31 -39 54 -44 109 -28 28 8 57 22 63 30 7 7 19 14 27 14 7
0 51 18 95 40 45 22 87 40 94 40 6 0 23 9 37 20 14 11 32 20 40 20 8 0 26 9
40 20 14 11 30 20 36 20 18 0 139 58 146 70 3 5 15 10 25 10 10 0 54 17 97 39
43 21 115 57 161 80 46 22 89 41 96 41 8 0 25 9 39 20 14 11 32 20 40 20 8 0
26 9 40 20 14 11 30 20 37 20 15 0 120 49 140 65 8 7 27 15 42 19 16 3 38 22
52 43 23 34 24 38 10 65 -13 24 -67 68 -84 68 -3 0 -34 -14 -70 -31z"/>
<path d="M4240 1919 c-104 -50 -236 -113 -270 -128 -14 -6 -32 -15 -40 -19
-14 -9 -77 -38 -130 -61 -14 -6 -32 -15 -40 -19 -8 -5 -35 -18 -60 -29 -69
-32 -204 -96 -314 -149 -92 -44 -100 -51 -117 -92 l-20 -45 33 -28 c40 -34 84
-37 136 -10 20 11 48 24 62 30 14 6 32 15 40 19 8 5 35 18 60 29 43 20 112 52
303 142 45 21 93 44 107 50 14 6 32 15 40 19 14 9 77 38 130 61 14 6 32 15 40
19 8 5 38 19 65 32 100 45 120 58 143 90 12 18 22 39 22 46 0 20 -65 84 -86
84 -11 0 -57 -19 -104 -41z"/>
<path d="M596 3565 c-16 -7 -37 -27 -47 -46 -17 -31 -18 -67 -19 -416 0 -433
-1 -428 76 -475 25 -16 49 -28 54 -28 4 0 43 -18 85 -39 43 -22 90 -43 105
-46 16 -4 34 -12 40 -20 6 -8 24 -17 40 -20 16 -3 34 -12 40 -20 6 -7 26 -16
44 -19 19 -4 39 -13 46 -21 6 -7 24 -17 40 -20 16 -3 34 -13 41 -21 6 -8 18
-14 26 -14 9 0 34 -10 57 -21 126 -65 276 -136 306 -144 14 -4 32 -13 40 -20
8 -8 27 -16 42 -20 15 -4 32 -13 39 -21 6 -8 16 -14 22 -14 6 0 29 -9 51 -19
23 -11 52 -25 66 -30 14 -6 32 -15 40 -19 95 -54 146 -60 152 -18 2 11 7 20
11 18 5 -2 15 5 23 15 11 15 13 94 14 418 0 220 -4 406 -9 413 -4 7 -14 12
-22 10 -7 -2 -15 6 -17 17 -3 19 -57 53 -132 85 -14 5 -32 14 -40 18 -8 5 -37
19 -65 31 -27 13 -59 28 -70 34 -11 5 -27 13 -35 17 -8 4 -53 25 -100 48 -47
22 -96 43 -110 47 -14 4 -32 13 -40 20 -8 7 -26 16 -40 20 -14 4 -32 13 -40
20 -8 7 -29 16 -47 20 -17 3 -37 12 -43 20 -6 8 -24 17 -40 20 -16 3 -34 13
-41 21 -6 8 -18 14 -26 14 -9 0 -34 10 -57 21 -22 12 -49 25 -58 30 -10 5 -26
13 -35 18 -65 32 -192 90 -213 96 -14 4 -32 13 -40 19 -29 24 -83 33 -114 21z
m229 -259 c186 -90 285 -136 340 -161 59 -27 141 -65 325 -152 52 -25 133 -63
180 -85 208 -98 191 -62 188 -393 l-3 -260 -25 -4 c-14 -1 -38 4 -55 12 -16 8
-68 33 -115 55 -47 21 -128 60 -180 85 -194 92 -307 146 -375 177 -38 18 -117
55 -175 82 -58 28 -123 58 -145 68 -22 9 -46 24 -53 33 -10 12 -13 80 -13 289
0 150 0 276 1 281 1 15 37 6 105 -27z"/>
<path d="M593 2403 c-31 -16 -53 -49 -53 -80 0 -28 48 -81 79 -88 16 -3 35
-13 42 -21 6 -8 16 -14 22 -14 11 0 102 -40 152 -68 45 -24 272 -130 295 -137
14 -4 32 -13 40 -20 8 -7 26 -16 40 -20 14 -4 32 -13 40 -20 8 -7 29 -16 45
-19 17 -4 37 -13 45 -20 8 -6 40 -22 70 -35 60 -25 74 -32 105 -49 45 -24 272
-130 295 -137 14 -4 32 -13 40 -20 22 -19 83 -34 114 -28 23 5 31 19 27 46 0
4 3 7 8 7 5 0 14 13 19 29 9 24 7 31 -6 37 -9 4 -20 6 -24 6 -5 -1 -8 6 -8 16
0 16 -56 51 -130 82 -14 5 -32 14 -40 19 -8 5 -37 19 -65 31 -27 12 -59 26
-70 32 -27 15 -37 20 -140 67 -49 23 -108 51 -130 61 -22 11 -51 24 -65 30
-14 5 -32 14 -40 19 -14 9 -77 38 -130 60 -14 6 -32 15 -40 20 -8 5 -37 19
-65 31 -27 12 -58 26 -67 31 -42 22 -47 24 -283 134 -72 33 -86 35 -122 18z"/>
<path d="M732 1924 c-23 -19 -42 -44 -42 -55 0 -22 84 -109 105 -109 8 0 50
-18 94 -40 44 -22 84 -40 88 -40 5 0 33 -13 64 -29 135 -70 261 -129 291 -136
15 -4 32 -13 38 -20 6 -8 24 -17 40 -20 16 -3 34 -13 41 -21 6 -8 18 -14 25
-14 8 0 51 -18 97 -41 151 -75 163 -80 200 -86 32 -5 41 -1 72 30 19 19 35 44
35 55 0 41 -74 90 -275 181 -22 10 -51 23 -65 30 -14 6 -32 15 -40 20 -17 10
-158 76 -240 111 -30 13 -67 32 -82 42 -14 10 -31 18 -38 18 -7 0 -46 18 -88
39 -43 22 -89 43 -104 46 -15 4 -32 13 -39 21 -6 8 -17 14 -23 14 -6 0 -28 9
-49 20 -50 27 -57 26 -105 -16z"/>
</g>
</svg>
